<?xml version="1.0" encoding="UTF-8"?>
<svg width="129px" height="24px" viewBox="0 0 129 24" version="1.1" xmlns="http://www.w3.org/2000/svg" xmlns:xlink="http://www.w3.org/1999/xlink">
    <title>logo/positive</title>
    <g id="Symbols" stroke="none" stroke-width="1" fill="none" fill-rule="evenodd">
        <g id="header/1.guestuser/1.solid/1.positive" transform="translate(-64.000000, -24.000000)" fill="#1A1A1A">
            <g id="logo/positive" transform="translate(64.000000, 24.000000)">
                <path d="M69.1226485,0 L67.2866467,8.56650807 C68.4197033,7.29747067 69.7456905,6.66295197 71.2648613,6.66295197 C72.420928,6.66295197 73.3388024,6.98046411 74.0189904,7.61473002 C74.6991784,8.24950152 75.0395252,9.21240261 75.0395252,10.5041917 C75.0395252,11.1617148 74.9593693,11.8928017 74.8008273,12.696694 C74.7611918,12.8979198 74.7172893,13.1100949 74.6691317,13.3332232 L74.5119054,14.0354715 L74.5119054,14.0354715 L74.3292195,14.8034627 L74.3292195,14.8034627 L74.121145,15.6372205 C73.9393402,16.3399942 73.7752353,17.0258305 73.6283248,17.6939711 C73.4804029,18.3626173 73.4070741,18.8894448 73.4070741,19.2747064 C73.4070741,19.7282229 73.5089759,20.079357 73.7130323,20.3286141 C73.9170887,20.5781241 74.2680555,20.702247 74.7671972,20.702247 C75.4471323,20.702247 75.9910298,20.459057 76.3993955,19.9716657 C76.6605889,19.6597023 76.9218861,19.2383619 77.1831542,18.7078437 L77.1808783,18.5269096 L77.1808783,18.5269096 C77.1808783,16.849859 77.5156623,15.0878688 78.1839659,13.2409391 C78.8525224,11.3940094 79.8503,9.82995868 81.1760344,8.54929264 C82.5025274,7.269385 84.0833955,6.62879919 85.9196502,6.62879919 C86.8489032,6.62879919 87.5399641,6.78755526 87.9935913,7.10481461 C88.4469657,7.42232676 88.6735264,7.84146302 88.6735264,8.36247618 L88.6735264,8.6003575 L89.0477562,6.7986783 L93.9443511,6.7986783 L91.4959272,18.3567777 C91.4054041,18.6967887 91.3601425,19.0595514 91.3601425,19.4445602 C91.3601425,20.4193427 91.8246426,20.9064812 92.7538957,20.9064812 C93.3883164,20.9064812 93.9382825,20.6122263 94.4032883,20.0227053 C94.8634736,19.4389109 95.2291016,18.6772132 95.5006639,17.7373665 L97.8201582,6.79870358 L102.7165,6.79870358 L102.342523,8.56650807 C103.475833,7.29747067 104.80182,6.66295197 106.320738,6.66295197 C107.476804,6.66295197 108.395185,6.98046411 109.07512,7.61473002 C109.755055,8.24950152 110.095149,9.21240261 110.095149,10.5041917 C110.095149,11.1617148 110.015246,11.8928017 109.856957,12.696694 C109.817258,12.8979198 109.773308,13.1100949 109.725119,13.3332232 L109.567845,14.0354715 L109.567845,14.0354715 L109.385207,14.8034627 L109.385207,14.8034627 L109.177274,15.6372205 C108.995217,16.3399942 108.831112,17.0258305 108.684201,17.6939711 C108.536279,18.3626173 108.463203,18.8894448 108.463203,19.2747064 C108.463203,19.7282229 108.564852,20.079357 108.769162,20.3286141 C108.972965,20.5781241 109.324185,20.702247 109.823074,20.702247 C110.503009,20.702247 111.046906,20.459057 111.455272,19.9716657 C111.716465,19.6597023 111.977763,19.2383619 112.239097,18.7078437 L112.23678,18.5269096 L112.23678,18.5269096 C112.23678,16.849859 112.571311,15.0878688 113.239868,13.2409391 C113.908171,11.3940094 114.905949,9.82995868 116.232189,8.54929264 C117.558429,7.269385 119.139297,6.62879919 120.975299,6.62879919 C121.904552,6.62879919 122.596119,6.78755526 123.04924,7.10481461 C123.502615,7.42232676 123.729681,7.84146302 123.729681,8.36247618 L123.729681,8.6003575 L124.103658,6.7986783 L129,6.7986783 L126.551576,18.3567777 C126.461053,18.6967887 126.415791,19.0595514 126.415791,19.4445602 C126.415791,19.8983295 126.523003,20.2211504 126.738691,20.4135284 C126.953873,20.6061592 127.311162,20.7022218 127.809797,20.7022218 C128.127134,20.7022218 128.376452,20.657224 128.558004,20.5664702 C128.059115,21.8360131 127.582984,22.7250977 127.129862,23.2349878 C126.675982,23.744878 126.018804,24 125.15757,24 C124.228064,24 123.474547,23.7226319 122.896514,23.1667329 C122.318734,22.611845 121.961445,21.8360131 121.82566,20.8382262 C120.442527,22.9460417 118.753436,24 116.759145,24 C115.466788,24 114.390119,23.5578087 113.528632,22.6742857 C113.122426,22.2572066 112.811959,21.7292761 112.597309,21.0903615 C112.157719,21.8001939 111.692063,22.3448655 111.200391,22.725123 C110.100206,23.5747714 108.961334,24 107.782763,24 C106.399882,24 105.385669,23.6316505 104.739617,22.8950021 C104.093565,22.1588593 103.770665,21.2465175 103.770665,20.1584822 C103.770665,19.6824668 103.8268,19.1445163 103.940838,18.5438723 C104.016022,18.1436115 104.094127,17.750766 104.174779,17.3654108 L104.408888,16.29465 L104.408888,16.29465 L104.516434,15.8413797 L104.516434,15.8413797 L104.552755,15.7052227 L104.552755,15.7052227 C104.734054,14.9122007 104.903722,14.1303017 105.062516,13.3597786 C105.221058,12.5892555 105.300709,11.9658599 105.300709,11.4900972 C105.300709,10.3340598 104.892596,9.75616744 104.076623,9.75616744 C103.486958,9.75616744 102.965565,10.0451136 102.512444,10.6232587 C102.058564,11.2008983 101.696471,11.9547368 101.424649,12.8837632 L99.1120096,23.7957153 L94.2159205,23.7957153 L94.5911233,22.0227717 C94.3449901,22.2815951 94.0897882,22.5043312 93.8255078,22.6909702 C92.5892851,23.5638758 91.348511,24 90.1016683,24 C89.149658,24 88.3847626,23.7337549 87.8069821,23.2011131 C87.2284431,22.6687241 86.8830391,21.8921339 86.7700116,20.8723537 C86.1118222,21.8018856 85.3808098,22.5549658 84.5764686,23.1328581 C83.7718745,23.7110033 82.8137956,24 81.7032433,24 C80.411139,24 79.3342169,23.5578087 78.4729826,22.6742857 C78.0664501,22.2569935 77.75581,21.7287366 77.5411155,21.089382 C77.1020886,21.7996691 76.6361709,22.3446823 76.1442618,22.725123 C75.0445824,23.5747714 73.9052043,24 72.7268861,24 C71.343753,24 70.3297925,23.6316505 69.6837403,22.8950021 C69.0376882,22.1588593 68.7145357,21.2465175 68.7145357,20.1584822 C68.7145357,19.6824668 68.770923,19.1445163 68.8844563,18.5438723 C68.9599765,18.1436115 69.0381939,17.750766 69.1188837,17.3654108 L69.3529459,16.29465 L69.3529459,16.29465 L69.4799264,15.765763 C69.4859742,15.7430703 69.4915402,15.7228903 69.4966254,15.7052227 C69.6779246,14.9122007 69.8475923,14.1303017 70.00664,13.3597786 C70.1649291,12.5892555 70.2448322,11.9658599 70.2448322,11.4900972 C70.2448322,10.3340598 69.8364666,9.75616744 69.0209996,9.75616744 C68.4310819,9.75616744 67.9096887,10.0451136 67.4565672,10.6232587 C67.00294,11.2008983 66.6405945,11.9547368 66.3682665,12.8837632 L64.056386,23.7957153 L59.160044,23.7957153 L60.0679234,19.5417794 C59.0444498,20.4458367 57.9145622,21.2519707 56.6783188,21.9604142 C56.0206352,22.6626823 55.2102253,23.1786396 54.2470893,23.5070219 C53.2831947,23.8351515 52.31399,24 51.3397282,24 C50.2516803,24 49.333553,23.7906594 48.5855991,23.3710175 C47.8373923,22.9521341 47.2823691,22.4078637 46.9195179,21.7394702 C46.5571724,21.0710768 46.3753675,20.3741175 46.3753675,19.6485921 C46.3753675,18.9005678 46.5513566,18.2493646 46.9025764,17.6939711 C47.2543018,17.1388305 47.6785975,16.7368843 48.1774863,16.4871216 C48.8580821,15.2663563 49.4711182,14.0352574 50.0172866,12.7939401 C49.3055389,12.4634756 48.617992,12.0840134 47.951881,11.6564814 C47.6609639,11.771835 47.3285258,11.8298807 46.9565363,11.8298807 C46.4579003,11.8298807 46.1236221,11.7110665 45.9537015,11.4729324 C45.7837809,11.235051 45.6528005,10.8899841 45.5627831,10.4362148 C45.4945114,10.1419599 45.4267455,9.92632463 45.3584738,9.79032022 C45.2907079,9.65431581 45.1655432,9.58631361 44.9844969,9.58631361 C44.5086181,9.58631361 44.1058154,9.68288179 43.7776057,9.87525977 C43.4483846,10.0681433 43.0235832,10.4020873 42.5024429,10.8781027 L39.7821968,23.7957406 L34.8858548,23.7957406 L35.2611105,22.0227717 C35.0149154,22.2815951 34.7596285,22.5043312 34.4952398,22.6909702 C33.2595228,23.5638758 32.018243,24 30.771906,24 C29.8198957,24 29.0547475,23.7337549 28.4767141,23.2011131 C27.8986808,22.6687241 27.5527711,21.8921339 27.4397436,20.8723537 C26.7820599,21.8018856 26.0507947,22.5549658 25.2467063,23.1328581 C24.4416065,23.7110033 23.4837804,24 22.373481,24 C21.0811239,24 20.0042018,23.5578087 19.1432203,22.6742857 C18.7020142,22.2214021 18.3737556,21.6378181 18.1585125,20.9233636 C16.8250421,22.8385236 15.0672559,23.7957406 12.886907,23.7957406 C11.9571482,23.7957406 11.2036314,23.5467362 10.6255981,23.0479692 C10.0478176,22.5499604 9.69078213,21.8241823 9.55474454,20.8724042 C8.96507972,21.7791845 8.25682452,22.526956 7.4294732,23.1159714 C6.60186903,23.7057451 5.63266439,24 4.52236499,24 C3.23026071,24 2.15333857,23.5578593 1.29210428,22.6743362 C0.43087,21.7903076 0,20.4082702 0,18.5269602 C0,16.8499096 0.334783967,15.0879194 1.00283475,13.2407369 C1.67139126,11.3940599 2.66916885,9.83000924 3.9951561,8.5493432 C5.32114336,7.26943556 6.90251717,6.62884975 8.73851897,6.62884975 C9.66777205,6.62884975 10.3590858,6.78760582 10.812713,7.10486517 C11.2658345,7.42237732 11.492901,7.84126078 11.492901,8.36252674 L11.492901,8.49853115 L13.1589822,0.679794519 L18.1913617,0 L14.2811659,18.3568283 C14.190137,18.6965865 14.1451283,19.059602 14.1451283,19.444358 C14.1451283,19.8981273 14.2523401,20.221201 14.468028,20.4133262 C14.6832101,20.6062097 15.0402456,20.7022723 15.5391344,20.7022723 C16.1733022,20.7022723 16.7232683,20.4305163 17.1882741,19.8864987 C17.438698,19.5930452 17.6613841,19.246925 17.8560547,18.8480587 C17.8525527,18.7425143 17.851116,18.6355444 17.851116,18.5269096 C17.851116,16.849859 18.1856472,15.0878688 18.8542037,13.2409391 C19.5225073,11.3940094 20.520032,9.82995868 21.8462721,8.54929264 C23.1725123,7.269385 24.7536332,6.62879919 26.589635,6.62879919 C27.5188881,6.62879919 28.2102018,6.78755526 28.6635762,7.10481461 C29.1169505,7.42232676 29.3437641,7.84146302 29.3437641,8.36247618 L29.3437641,8.6003575 L29.7177411,6.7986783 L34.6143359,6.7986783 L32.1661649,18.3567777 C32.0751361,18.6967887 32.0301273,19.0595514 32.0301273,19.4445602 C32.0301273,20.4193427 32.4943746,20.9064812 33.4241334,20.9064812 C34.0583012,20.9064812 34.6085202,20.6122263 35.0732731,20.0227053 C35.5330421,19.4391214 35.8993139,18.6777626 36.1703692,17.7383833 L38.4900925,6.79872886 L43.3864344,6.79872886 L42.9444387,8.90629157 C43.7148969,8.22652233 44.4117735,7.70550917 45.0355742,7.34249369 C45.6588691,6.98048939 46.3329885,6.79872886 47.0586909,6.79872886 C47.7838876,6.79872886 48.356358,7.0484916 48.7758494,7.5465003 C49.195088,8.04552019 49.4049601,8.64616418 49.4049601,9.3481795 C49.4049601,9.58515602 49.3769651,9.81176413 49.3210224,10.0280038 L49.3585354,10.028783 L49.3170554,10.0431438 C49.237031,10.3447352 49.1024,10.6260672 48.9132917,10.8871397 C49.4588281,11.3279801 49.9485208,11.6670557 50.3831159,11.9055427 L50.3900817,11.9199863 L50.4896197,11.6769137 L50.4896197,11.6769137 C51.1470504,10.056995 51.7700925,8.30612789 52.3597573,6.42481786 L57.3921369,5.74504862 C57.4940892,8.35602988 57.6603534,11.1594902 57.8909296,14.1554297 L58.0395461,16.0429693 L58.0395461,16.0429693 L58.0908239,16.8051616 L58.0908239,16.8051616 L58.1240036,17.4478376 L58.1240036,17.4478376 L58.136069,17.8099181 L58.136069,17.8099181 L58.1400908,18.1189217 L58.1400908,18.1189217 C58.1400908,18.6404405 58.0945763,19.0706998 58.0040532,19.4107108 C59.0695967,18.7986909 59.8855694,18.23268 60.452477,17.7109085 L60.458,17.71 L64.0905218,0.679769239 L69.1226485,0 Z M52.5640666,10.0961785 C52.0196633,11.8867346 51.101536,14.0284248 49.8096846,16.5212491 C50.3310777,16.7930051 50.5917743,17.1898953 50.5917743,17.7109085 C50.5917743,18.1416734 50.449921,18.5269349 50.16672,18.8666931 C49.8830134,19.2067042 49.5259779,19.3765833 49.0956136,19.3765833 C48.6194821,19.3765833 48.3135239,19.2294558 48.1774863,18.9346953 C48.1774863,19.750469 48.3415911,20.351113 48.6705594,20.7363745 C48.9990219,21.1218889 49.5259779,21.3142669 50.2516803,21.3142669 C51.0901574,21.3142669 51.7931026,21.0652625 52.3597573,20.5664954 C52.9261592,20.0682339 53.2098659,19.2635833 53.2098659,18.1527964 C53.2098659,17.8808887 53.1989828,17.5654596 53.177233,17.2064929 L53.1364602,16.6353876 L53.1364602,16.6353876 L53.0793992,15.9989639 L53.0793992,15.9989639 L53.0060623,15.2972094 L53.0060623,15.2972094 L52.574827,10.2351551 C52.5710417,10.1867054 52.5674549,10.1403799 52.5640666,10.0961785 Z M9.7926839,8.73666526 C8.88568232,8.73666526 8.06970961,9.26323994 7.34426007,10.3171477 C6.61881052,11.3710555 6.05240864,12.6403457 5.64454872,14.1245127 C5.23643593,15.6091854 5.03237954,16.9179118 5.03237954,18.0509448 C5.03237954,19.1842306 5.19648437,19.9092503 5.52545261,20.2262569 C5.85366227,20.5440218 6.25646503,20.7022723 6.73259661,20.7022723 C7.27649413,20.7022723 7.82595452,20.453268 8.3814835,19.9545009 C8.93675963,19.4562394 9.31655232,18.7648415 9.52086157,17.8810657 L9.52086157,17.7109338 L11.1869428,9.92632463 C10.9826336,9.13330265 10.5178806,8.73666526 9.7926839,8.73666526 Z M27.6437999,8.7366147 C26.7367984,8.7366147 25.9208257,9.26344218 25.195629,10.3170971 C24.4699266,11.3710049 23.9035247,12.6405479 23.4954119,14.1247149 C23.0872991,15.6091348 22.8834956,16.9178612 22.8834956,18.0508942 C22.8834956,19.18418 23.0476004,19.9091998 23.3763158,20.2262063 C23.7047783,20.5439713 24.1073282,20.7022218 24.5834598,20.7022218 C25.1498617,20.7022218 25.7109535,20.4362801 26.2667354,19.9036383 C26.8217586,19.3712493 27.2015513,18.6404152 27.4058606,17.7108832 L29.037806,10.028151 C29.037806,9.73389609 28.9242728,9.44494992 28.697712,9.16131248 C28.4711513,8.87843342 28.1196787,8.7366147 27.6437999,8.7366147 Z M86.9735622,8.7366147 C86.0665606,8.7366147 85.2510937,9.26344218 84.5256441,10.3170971 C83.7999417,11.3710049 83.2330341,12.6405479 82.8256799,14.1247149 C82.4175671,15.6091348 82.213005,16.9178612 82.213005,18.0508942 C82.213005,19.18418 82.3776156,19.9091998 82.7060781,20.2262063 C83.0345406,20.5439713 83.4375962,20.7022218 83.9137278,20.7022218 C84.4798768,20.7022218 85.0407158,20.4362801 85.5964977,19.9036383 C86.1515209,19.3712493 86.5315665,18.6404152 86.73537,17.7108832 L88.3678211,10.028151 C88.3678211,9.73389609 88.2542879,9.44494992 88.0277272,9.16131248 C87.8011664,8.87843342 87.4496938,8.7366147 86.9735622,8.7366147 Z M122.029211,8.7366147 C121.122462,8.7366147 120.306743,9.26344218 119.581546,10.3170971 C118.855844,11.3710049 118.288936,12.6405479 117.881329,14.1247149 C117.473216,15.6091348 117.268907,16.9178612 117.268907,18.0508942 C117.268907,19.18418 117.433517,19.9091998 117.76198,20.2262063 C118.090442,20.5439713 118.493245,20.7022218 118.969377,20.7022218 C119.535779,20.7022218 120.09687,20.4362801 120.652399,19.9036383 C121.207423,19.3712493 121.587468,18.6404152 121.791272,17.7108832 L123.423723,10.028151 C123.423723,9.73389609 123.309937,9.44494992 123.083629,9.16131248 C122.856815,8.87843342 122.505343,8.7366147 122.029211,8.7366147 Z"></path>
            </g>
        </g>
    </g>
</svg>